<svg width="24" height="24" viewBox="0 0 24 24" fill="none" xmlns="http://www.w3.org/2000/svg">
<path d="M22.5 1C23.0523 1 23.5 1.44772 23.5 2V22.5C23.5 23.0523 23.0523 23.5 22.5 23.5H2C1.44772 23.5 1 23.0523 1 22.5V2C1 1.44772 1.44772 1 2 1H22.5ZM11.999 2C9.28522 2.00001 8.94407 2.01203 7.87793 2.06055C6.81334 2.1093 6.08604 2.2781 5.4502 2.52539C4.79266 2.78078 4.23443 3.12183 3.67871 3.67773C3.12247 4.23356 2.78067 4.79173 2.52441 5.44922C2.27649 6.08527 2.10846 6.81278 2.06055 7.87695C2.01285 8.94329 2 9.28459 2 12C2 14.7156 2.01223 15.0557 2.06055 16.1221C2.10951 17.1867 2.2783 17.914 2.52539 18.5498C2.781 19.2074 3.12276 19.7655 3.67871 20.3213C4.23424 20.8774 4.79204 21.2202 5.44922 21.4756C6.08544 21.7228 6.81265 21.8907 7.87695 21.9395C8.94347 21.988 9.28452 22 12 22C14.7157 22 15.0555 21.988 16.1221 21.9395C17.1867 21.8907 17.9145 21.7229 18.5508 21.4756C19.2083 21.2202 19.7657 20.8775 20.3213 20.3213C20.8774 19.7655 21.2184 19.2072 21.4746 18.5498C21.7204 17.9138 21.8894 17.187 21.9395 16.123C21.9874 15.0564 22 14.7159 22 12C22 9.28442 21.9874 8.94344 21.9395 7.87695C21.8895 6.81236 21.7204 6.08506 21.4746 5.44922C21.2184 4.79172 20.8774 4.23343 20.3213 3.67773C19.765 3.12148 19.2081 2.7806 18.5498 2.52539C17.9124 2.27812 17.1855 2.10932 16.1211 2.06055C15.0546 2.01201 14.7146 2 11.999 2ZM11.1035 3.80176C11.3698 3.80134 11.6672 3.80176 12.001 3.80176C14.671 3.80176 14.9876 3.81146 16.042 3.85938C17.0169 3.90397 17.546 4.06723 17.8984 4.2041C18.3651 4.38535 18.6981 4.60214 19.0479 4.95215C19.3976 5.30199 19.6143 5.63517 19.7959 6.10156C19.9328 6.45363 20.0962 6.98311 20.1406 7.95801C20.1885 9.01219 20.1992 9.32927 20.1992 11.998C20.1992 14.6663 20.1885 14.9832 20.1406 16.0371C20.096 17.012 19.9328 17.5415 19.7959 17.8936C19.6147 18.3601 19.3977 18.6923 19.0479 19.042C18.6979 19.392 18.3653 19.6088 17.8984 19.79C17.5464 19.9275 17.0169 20.0902 16.042 20.1348C14.9878 20.1827 14.671 20.1934 12.001 20.1934C9.33074 20.1934 9.01414 20.1827 7.95996 20.1348C6.98526 20.0898 6.45621 19.9269 6.10352 19.79C5.63684 19.6088 5.30313 19.392 4.95312 19.042C4.60321 18.692 4.38672 18.3594 4.20508 17.8926C4.06822 17.5405 3.90472 17.011 3.86035 16.0361C3.81245 14.9823 3.80273 14.6652 3.80273 11.9951C3.80273 9.32516 3.81245 9.00991 3.86035 7.95605C3.90494 6.98104 4.0682 6.45114 4.20508 6.09863C4.38628 5.63223 4.6033 5.29907 4.95312 4.94922C5.30313 4.59922 5.63684 4.38186 6.10352 4.2002C6.45601 4.06274 6.98542 3.90025 7.95996 3.85547C8.88242 3.8138 9.24003 3.80189 11.1035 3.7998V3.80176ZM12.001 6.86426C9.16494 6.86426 6.86529 9.16398 6.86523 12C6.86523 14.8361 9.16491 17.1348 12.001 17.1348C14.837 17.1347 17.1357 14.8361 17.1357 12C17.1357 9.16399 14.837 6.86428 12.001 6.86426ZM12.001 8.66699C13.8418 8.66701 15.3339 10.159 15.334 12C15.334 13.8408 13.8418 15.333 12.001 15.333C10.1599 15.333 8.66797 13.8409 8.66797 12C8.66803 10.159 10.16 8.66699 12.001 8.66699ZM17.3389 5.46191C16.6764 5.46194 16.1387 5.99942 16.1387 6.66211C16.1387 7.3246 16.6764 7.86228 17.3389 7.8623C18.0014 7.8623 18.5391 7.32462 18.5391 6.66211C18.5391 5.99961 18.0014 5.46191 17.3389 5.46191Z" fill="#525252"/>
<path d="M22.5 1C23.0523 1 23.5 1.44772 23.5 2V22.5C23.5 23.0523 23.0523 23.5 22.5 23.5H2C1.44772 23.5 1 23.0523 1 22.5V2C1 1.44772 1.44772 1 2 1H22.5ZM11.999 2C9.28522 2.00001 8.94407 2.01203 7.87793 2.06055C6.81334 2.1093 6.08604 2.2781 5.4502 2.52539C4.79266 2.78078 4.23443 3.12183 3.67871 3.67773C3.12247 4.23356 2.78067 4.79173 2.52441 5.44922C2.27649 6.08527 2.10846 6.81278 2.06055 7.87695C2.01285 8.94329 2 9.28459 2 12C2 14.7156 2.01223 15.0557 2.06055 16.1221C2.10951 17.1867 2.2783 17.914 2.52539 18.5498C2.781 19.2074 3.12276 19.7655 3.67871 20.3213C4.23424 20.8774 4.79204 21.2202 5.44922 21.4756C6.08544 21.7228 6.81265 21.8907 7.87695 21.9395C8.94347 21.988 9.28452 22 12 22C14.7157 22 15.0555 21.988 16.1221 21.9395C17.1867 21.8907 17.9145 21.7229 18.5508 21.4756C19.2083 21.2202 19.7657 20.8775 20.3213 20.3213C20.8774 19.7655 21.2184 19.2072 21.4746 18.5498C21.7204 17.9138 21.8894 17.187 21.9395 16.123C21.9874 15.0564 22 14.7159 22 12C22 9.28442 21.9874 8.94344 21.9395 7.87695C21.8895 6.81236 21.7204 6.08506 21.4746 5.44922C21.2184 4.79172 20.8774 4.23343 20.3213 3.67773C19.765 3.12148 19.2081 2.7806 18.5498 2.52539C17.9124 2.27812 17.1855 2.10932 16.1211 2.06055C15.0546 2.01201 14.7146 2 11.999 2ZM11.1035 3.80176C11.3698 3.80134 11.6672 3.80176 12.001 3.80176C14.671 3.80176 14.9876 3.81146 16.042 3.85938C17.0169 3.90397 17.546 4.06723 17.8984 4.2041C18.3651 4.38535 18.6981 4.60214 19.0479 4.95215C19.3976 5.30199 19.6143 5.63517 19.7959 6.10156C19.9328 6.45363 20.0962 6.98311 20.1406 7.95801C20.1885 9.01219 20.1992 9.32927 20.1992 11.998C20.1992 14.6663 20.1885 14.9832 20.1406 16.0371C20.096 17.012 19.9328 17.5415 19.7959 17.8936C19.6147 18.3601 19.3977 18.6923 19.0479 19.042C18.6979 19.392 18.3653 19.6088 17.8984 19.79C17.5464 19.9275 17.0169 20.0902 16.042 20.1348C14.9878 20.1827 14.671 20.1934 12.001 20.1934C9.33074 20.1934 9.01414 20.1827 7.95996 20.1348C6.98526 20.0898 6.45621 19.9269 6.10352 19.79C5.63684 19.6088 5.30313 19.392 4.95312 19.042C4.60321 18.692 4.38672 18.3594 4.20508 17.8926C4.06822 17.5405 3.90472 17.011 3.86035 16.0361C3.81245 14.9823 3.80273 14.6652 3.80273 11.9951C3.80273 9.32516 3.81245 9.00991 3.86035 7.95605C3.90494 6.98104 4.0682 6.45114 4.20508 6.09863C4.38628 5.63223 4.6033 5.29907 4.95312 4.94922C5.30313 4.59922 5.63684 4.38186 6.10352 4.2002C6.45601 4.06274 6.98542 3.90025 7.95996 3.85547C8.88242 3.8138 9.24003 3.80189 11.1035 3.7998V3.80176ZM12.001 6.86426C9.16494 6.86426 6.86529 9.16398 6.86523 12C6.86523 14.8361 9.16491 17.1348 12.001 17.1348C14.837 17.1347 17.1357 14.8361 17.1357 12C17.1357 9.16399 14.837 6.86428 12.001 6.86426ZM12.001 8.66699C13.8418 8.66701 15.3339 10.159 15.334 12C15.334 13.8408 13.8418 15.333 12.001 15.333C10.1599 15.333 8.66797 13.8409 8.66797 12C8.66803 10.159 10.16 8.66699 12.001 8.66699ZM17.3389 5.46191C16.6764 5.46194 16.1387 5.99942 16.1387 6.66211C16.1387 7.3246 16.6764 7.86228 17.3389 7.8623C18.0014 7.8623 18.5391 7.32462 18.5391 6.66211C18.5391 5.99961 18.0014 5.46191 17.3389 5.46191Z" fill="#262626"/>
</svg>
