<svg xmlns="http://www.w3.org/2000/svg" xmlns:xlink="http://www.w3.org/1999/xlink" width="40" zoomAndPan="magnify" viewBox="0 0 30 30.000001" height="40" preserveAspectRatio="xMidYMid meet" version="1.0"><defs><clipPath id="58ba3c5d0e"><path d="M 0.484375 0 L 29.515625 0 L 29.515625 29.03125 L 0.484375 29.03125 Z M 0.484375 0 " clip-rule="nonzero"/></clipPath><clipPath id="b2564cedad"><path d="M 8.03125 7.546875 L 21.824219 7.546875 L 21.824219 21.339844 L 8.03125 21.339844 Z M 8.03125 7.546875 " clip-rule="nonzero"/></clipPath></defs><g clip-path="url(#58ba3c5d0e)"><path fill="#ffffff" d="M 0.484375 0 L 29.515625 0 L 29.515625 29.03125 L 0.484375 29.03125 Z M 0.484375 0 " fill-opacity="1" fill-rule="nonzero"/><path fill="#ffffff" d="M 0.484375 0 L 29.515625 0 L 29.515625 29.03125 L 0.484375 29.03125 Z M 0.484375 0 " fill-opacity="1" fill-rule="nonzero"/></g><g clip-path="url(#b2564cedad)"><path fill="#092540" d="M 12.109375 7.597656 C 11.371094 7.632812 10.863281 7.75 10.421875 7.921875 C 9.964844 8.101562 9.574219 8.339844 9.191406 8.726562 C 8.804688 9.117188 8.566406 9.503906 8.390625 9.960938 C 8.21875 10.40625 8.101562 10.910156 8.070312 11.652344 C 8.035156 12.394531 8.03125 12.632812 8.03125 14.523438 C 8.035156 16.410156 8.042969 16.648438 8.078125 17.390625 C 8.117188 18.132812 8.234375 18.636719 8.40625 19.082031 C 8.585938 19.539062 8.824219 19.925781 9.210938 20.3125 C 9.597656 20.699219 9.988281 20.933594 10.445312 21.113281 C 10.890625 21.28125 11.394531 21.398438 12.136719 21.433594 C 12.878906 21.464844 13.117188 21.472656 15.003906 21.46875 C 16.894531 21.464844 17.132812 21.457031 17.875 21.421875 C 18.617188 21.386719 19.121094 21.265625 19.5625 21.09375 C 20.023438 20.914062 20.410156 20.675781 20.792969 20.289062 C 21.179688 19.902344 21.417969 19.511719 21.59375 19.054688 C 21.765625 18.613281 21.882812 18.105469 21.914062 17.367188 C 21.949219 16.625 21.957031 16.386719 21.953125 14.496094 C 21.949219 12.605469 21.941406 12.367188 21.90625 11.625 C 21.871094 10.886719 21.75 10.378906 21.578125 9.9375 C 21.398438 9.480469 21.160156 9.09375 20.773438 8.707031 C 20.386719 8.320312 19.996094 8.082031 19.539062 7.90625 C 19.097656 7.734375 18.589844 7.617188 17.847656 7.585938 C 17.105469 7.554688 16.867188 7.546875 14.980469 7.550781 C 13.089844 7.550781 12.851562 7.5625 12.109375 7.597656 M 12.191406 20.179688 C 11.511719 20.148438 11.144531 20.035156 10.898438 19.941406 C 10.574219 19.816406 10.339844 19.664062 10.097656 19.421875 C 9.851562 19.179688 9.703125 18.949219 9.574219 18.625 C 9.480469 18.378906 9.363281 18.011719 9.332031 17.332031 C 9.296875 16.597656 9.289062 16.378906 9.285156 14.519531 C 9.28125 12.660156 9.289062 12.441406 9.320312 11.707031 C 9.351562 11.027344 9.464844 10.660156 9.558594 10.414062 C 9.683594 10.089844 9.835938 9.859375 10.078125 9.613281 C 10.320312 9.371094 10.550781 9.21875 10.878906 9.089844 C 11.121094 8.996094 11.492188 8.882812 12.167969 8.847656 C 12.902344 8.8125 13.121094 8.808594 14.980469 8.804688 C 16.839844 8.800781 17.058594 8.804688 17.792969 8.839844 C 18.472656 8.867188 18.839844 8.980469 19.085938 9.074219 C 19.410156 9.203125 19.644531 9.351562 19.886719 9.59375 C 20.132812 9.835938 20.285156 10.070312 20.410156 10.394531 C 20.503906 10.636719 20.621094 11.007812 20.652344 11.683594 C 20.6875 12.417969 20.695312 12.640625 20.699219 14.496094 C 20.699219 16.355469 20.695312 16.574219 20.664062 17.308594 C 20.632812 17.988281 20.519531 18.355469 20.425781 18.601562 C 20.300781 18.925781 20.148438 19.160156 19.90625 19.402344 C 19.664062 19.648438 19.433594 19.796875 19.105469 19.925781 C 18.863281 20.019531 18.492188 20.136719 17.816406 20.167969 C 17.082031 20.203125 16.863281 20.210938 15.003906 20.214844 C 13.144531 20.214844 12.925781 20.210938 12.191406 20.179688 M 17.867188 10.789062 C 17.867188 11.25 18.242188 11.621094 18.703125 11.621094 C 19.164062 11.621094 19.535156 11.246094 19.535156 10.785156 C 19.535156 10.324219 19.160156 9.949219 18.699219 9.949219 C 18.238281 9.953125 17.863281 10.328125 17.863281 10.789062 M 11.417969 14.515625 C 11.421875 16.488281 13.027344 18.085938 15 18.082031 C 16.972656 18.078125 18.570312 16.476562 18.566406 14.5 C 18.5625 12.527344 16.957031 10.929688 14.984375 10.933594 C 13.011719 10.9375 11.414062 12.542969 11.417969 14.515625 M 12.671875 14.511719 C 12.671875 13.230469 13.707031 12.191406 14.988281 12.1875 C 16.269531 12.1875 17.308594 13.222656 17.3125 14.503906 C 17.316406 15.785156 16.277344 16.828125 14.996094 16.828125 C 13.714844 16.832031 12.675781 15.792969 12.671875 14.511719 " fill-opacity="1" fill-rule="nonzero"/></g></svg>